<?xml version="1.0" encoding="UTF-8" standalone="no"?><!DOCTYPE svg PUBLIC "-//W3C//DTD SVG 1.1//EN" "http://www.w3.org/Graphics/SVG/1.1/DTD/svg11.dtd"><svg width="100%" height="100%" viewBox="0 0 512 512" version="1.1" xmlns="http://www.w3.org/2000/svg" xmlns:xlink="http://www.w3.org/1999/xlink" xml:space="preserve" style="fill-rule:evenodd;clip-rule:evenodd;stroke-linejoin:round;stroke-miterlimit:1.41421;"><g><path d="M256,51.2c-32.992,0 -59.733,26.741 -59.733,59.733c0,32.992 26.741,59.733 59.733,59.733c32.992,0 59.733,-26.741 59.733,-59.733c0,-32.992 -26.741,-59.733 -59.733,-59.733Zm0,102.4c-23.567,0 -42.667,-19.1 -42.667,-42.667c0,-23.567 19.1,-42.667 42.667,-42.667c23.567,0 42.667,19.1 42.667,42.667c0,23.567 -19.1,42.667 -42.667,42.667Z" style="fill:#4794da;fill-rule:nonzero;"/><path d="M256,196.267c-32.992,0 -59.733,26.741 -59.733,59.733c0,32.992 26.741,59.733 59.733,59.733c32.992,0 59.733,-26.741 59.733,-59.733c0,-32.992 -26.741,-59.733 -59.733,-59.733Zm0,102.4c-23.567,0 -42.667,-19.1 -42.667,-42.667c0,-23.567 19.1,-42.667 42.667,-42.667c23.567,0 42.667,19.1 42.667,42.667c0,23.567 -19.1,42.667 -42.667,42.667Z" style="fill:#4794da;fill-rule:nonzero;"/><path d="M256,341.333c-32.992,0 -59.733,26.741 -59.733,59.733c0,32.992 26.741,59.734 59.733,59.734c32.992,0 59.733,-26.741 59.733,-59.733c0,-32.992 -26.741,-59.734 -59.733,-59.734Zm0,102.4c-23.567,0 -42.667,-19.1 -42.667,-42.667c0,-23.567 19.1,-42.666 42.667,-42.666c23.567,0 42.667,19.1 42.667,42.667c0,23.567 -19.1,42.666 -42.667,42.666Z" style="fill:#4794da;fill-rule:nonzero;"/><path d="M401.067,119.467l8.533,0c33.009,0 59.733,-26.724 59.733,-59.733l0,-8.534l-102.4,0l0,-23.467c0,-15.319 -12.413,-27.733 -27.733,-27.733l-166.4,0c-15.32,0 -27.733,12.414 -27.733,27.733l0,23.467l-102.4,0l0,8.533c0,33.009 26.724,59.733 59.733,59.733l8.533,0c18.873,0 34.133,15.26 34.133,34.133l0,42.667l-102.4,0l0,8.533c0,33.009 26.724,59.733 59.733,59.733l8.533,0c18.873,0 34.133,15.26 34.133,34.133l0,42.667l-102.4,0l0,8.533c0,33.009 26.724,59.733 59.733,59.733l8.533,0c18.873,0 34.133,15.26 34.133,34.133l0,40.533c0,15.32 12.414,27.733 27.733,27.733l166.4,0c15.32,0 27.733,-12.414 27.733,-27.733l0,-40.533c0,-18.873 15.26,-34.133 34.133,-34.133l8.533,0c33.009,0 59.733,-26.724 59.733,-59.733l0,-8.533l-102.4,0l0,-42.667c0,-18.873 15.26,-34.133 34.133,-34.133l8.533,0c33.009,0 59.733,-26.724 59.733,-59.733l0,-8.533l-102.4,0l0,-42.666c0.005,-18.873 15.265,-34.133 34.139,-34.133Zm50.348,-51.2c-3.948,19.487 -21.154,34.133 -41.815,34.133l-8.533,0c-13.119,0 -25.078,4.922 -34.133,13.022l0,-47.155l84.481,0Zm-340.482,34.133l-8.533,0c-20.661,0 -37.867,-14.646 -41.815,-34.133l84.482,0l0,47.155c-9.055,-8.1 -21.014,-13.022 -34.134,-13.022Zm0,145.067l-8.533,0c-20.661,0 -37.867,-14.646 -41.815,-34.133l84.482,0l0,47.155c-9.055,-8.1 -21.014,-13.022 -34.134,-13.022Zm0,145.066l-8.533,0c-20.661,0 -37.867,-14.646 -41.815,-34.133l84.482,0l0,47.155c-9.055,-8.1 -21.014,-13.022 -34.134,-13.022Zm340.482,-34.133c-3.948,19.487 -21.154,34.133 -41.815,34.133l-8.533,0c-13.119,0 -25.078,4.922 -34.133,13.022l0,-47.155l84.481,0Zm0,-145.067c-3.948,19.487 -21.154,34.133 -41.815,34.133l-8.533,0c-13.119,0 -25.078,4.922 -34.133,13.022l0,-47.155l84.481,0Zm-101.548,-17.066l0,288c0,5.894 -4.773,10.667 -10.667,10.667l-166.4,0c-5.894,0 -10.667,-4.773 -10.667,-10.667l0,-40.533l0,-102.4l0,-42.667l0,-102.4l0,-42.667l0,-102.4l0,-23.467c0,-5.894 4.773,-10.667 10.667,-10.667l166.4,0c5.894,0 10.667,4.773 10.667,10.667l0,168.534Z" style="fill:#4794da;fill-rule:nonzero;"/></g></svg>